<svg width="82" height="20" viewBox="0 0 165 40" fill="none" xmlns="http://www.w3.org/2000/svg">
    <path d="M145.212 10.395c.263-.215.462-.263 2.567-.27 3.236-.009 3.045-.184 3.499.278.359.494.271.486.271.486l.917 3.245.861 2.926s.391 1.395.67 2.4c.279 1.004.861 3.252.941 3.61.079.36.071.415.023.615-.079.374-.295.717-.534 1.012-.406.51-.901.973-1.467 1.292-.342.19-.757.486-1.132.358-.247-.08-.454-.63-.454-.63s-.718-1.96-1.284-3.252c-.566-1.292-1.283-2.91-1.913-4.337-.63-1.427-1.323-3.005-1.849-4.21-.527-1.203-1.603-3.148-1.124-3.523"
          fill="#4EADF8"></path>
    <path d="M159.458 10.499c.191-.247.279-.343 1.116-.359 1.244-.032 2.4.016 3.516.088.39.024.574.622.55 1.044-.024.415-.279 1.044-.375 1.411-.175.614-.534 1.515-.813 2.256-.279.75-.63 1.61-.63 1.61l-1.65 4.074-1.172 2.91c-.638 1.61-.789 2.049-1.26 3.229-.502 1.267-.996-.112-1.801-1.3-.742-1.068-.622-.956-.67-1.06-.191-.383-.375-.558-.191-1.268.414-1.658.701-2.694 1.164-4.36.706-2.53 1.161-4.199 1.363-5.007.295-1.211.422-2.112.422-2.112s.04-.774.439-1.156m-4.17 15.395c-.534-.008-.662.343-1.283.972-.806.813-1.204.965-.997 1.53.247.663 1.005.535 2.049.59 1.228.065 1.818.264 2.16-.374.303-.566.016-.606-.773-1.77-.59-.869-.654-.932-1.156-.948Z"
          fill="#97D744"></path>
    <path d="M19.73 22.896c0 5.596-4.033 8.395-12.093 8.395-2.742 0-5.285-.327-7.637-.989l1.052-4.783c2.328.797 4.52 1.204 6.585 1.204 2.296 0 3.946-.224 4.95-.662 1.005-.447 1.508-1.188 1.508-2.232 0-1.045-.47-2.001-1.42-2.75-.82-.662-2.47-1.515-4.966-2.576-2.264-.972-3.954-2.032-5.054-3.172C1.26 13.888.566 12.1.566 9.989c0-2.463.917-4.384 2.742-5.772 1.826-1.387 4.457-2.08 7.885-2.08 2.814 0 5.174.239 7.079.71l-.797 4.767c-1.937-.702-4.026-1.053-6.282-1.053-3.388 0-5.078.901-5.078 2.703 0 .956.39 1.738 1.18 2.336.685.518 2.184 1.235 4.496 2.168 2.455.989 4.289 2.073 5.508 3.26 1.619 1.587 2.432 3.548 2.432 5.884m20.018-4.775c0 .733-.04 1.682-.128 2.854l-13.855.239c.199 1.618.893 2.957 2.088 4.034 1.188 1.076 2.75 1.61 4.688 1.61 2.152 0 4.44-.319 6.864-.965l-.43 4.162c-1.978.717-4.433 1.076-7.359 1.076-3.699 0-6.537-1.036-8.506-3.11-1.97-2.072-2.958-4.567-2.958-7.485s.933-5.692 2.806-7.932c1.874-2.24 4.473-3.356 7.797-3.356 3.045 0 5.302.82 6.776 2.471 1.475 1.65 2.217 3.787 2.217 6.418v-.016Zm-5.039-.176c0-3.292-1.403-4.934-4.217-4.934-2.814 0-4.273 1.706-4.775 5.11l8.992-.168v-.008Zm38.036 12.556h-5.7c.302-3.62.454-7.143.454-10.555 0-2.56-.327-4.233-.989-5.023-.661-.789-1.714-1.18-3.165-1.18-1.164 0-2.383.423-3.675 1.268a156.418 156.418 0 0 0-.087 4.807c0 2.392.04 5.955.127 10.69h-5.764c.32-3.922.47-7.732.47-11.44 0-1.912-.27-3.284-.805-4.097-.542-.813-1.65-1.22-3.348-1.22-1.562 0-2.862.527-3.898 1.563.072 5.668.103 10.73.103 15.195h-5.787c.255-4.465.39-7.988.39-10.555 0-3.348-.35-6.577-1.052-9.678l5.509-.598.366 2.272h.343c1.866-1.69 3.97-2.535 6.306-2.535 2.926 0 4.983.845 6.178 2.535h.343c2.12-1.69 4.226-2.535 6.306-2.535 2.44 0 4.281.526 5.517 1.578 1.244 1.053 1.858 2.958 1.858 5.716 0 .271-.016.79-.04 1.555-.024.765-.04 1.283-.04 1.554 0 2.392.032 5.955.087 10.69l-.007-.007Zm19.539-.024-5.078.168c-.231-.598-.343-1.14-.343-1.627h-.279c-1.578 1.348-3.707 2.017-6.394 2.017-1.793 0-3.276-.494-4.464-1.49-1.18-.997-1.778-2.313-1.778-3.963 0-2.176.925-3.954 2.767-5.341 1.841-1.387 5.07-2.129 9.694-2.208.032-.255.04-.503.04-.726 0-1.546-.375-2.567-1.117-3.061-.749-.494-2.112-.742-4.105-.742-2.169 0-4.281.287-6.346.862l.47-3.947c1.953-.67 4.704-1.012 8.26-1.012 2.598 0 4.6.542 6.01 1.634 1.411 1.084 2.12 2.99 2.12 5.708 0 .598-.023 1.698-.07 3.285-.049 1.586-.08 2.646-.08 3.172 0 2.958.23 5.39.685 7.271h.008Zm-5.756-4.464c-.087-1.93-.127-3.596-.127-4.999-4.887 0-7.335 1.236-7.335 3.715 0 1.698 1.077 2.551 3.229 2.551 1.69 0 3.11-.422 4.241-1.267m21.381-15.897-1.251 5.023a8.52 8.52 0 0 0-3.229-.646c-2.105 0-3.5.94-4.178 2.83 0 5.708.04 10.1.128 13.178h-5.724c.247-4.305.367-7.829.367-10.555 0-3.404-.359-6.633-1.076-9.678l5.484-.598c.248 1.57.367 2.495.367 2.766h.343c1.323-2.017 3.077-3.03 5.269-3.03 1.029 0 2.193.24 3.484.71m16.319 15.88-.367 4.098c-1.307.686-3.077 1.029-5.317 1.029-3.699 0-6.545-1.029-8.53-3.094-1.985-2.057-2.982-4.536-2.982-7.43 0-2.893 1.045-5.628 3.117-7.868 2.081-2.24 4.927-3.356 8.539-3.356 1.761 0 3.332.199 4.711.598l-.733 4.376c-1.316-.542-2.799-.813-4.433-.813-1.738 0-3.109.614-4.105 1.834-1.005 1.227-1.507 2.726-1.507 4.52 0 1.945.598 3.587 1.786 4.934 1.187 1.348 2.877 2.018 5.054 2.018 1.275 0 2.862-.288 4.751-.861m20.058 4.52h-5.724c.319-3.62.47-7.143.47-10.555 0-2.551-.327-4.217-.964-5.014-.646-.798-1.706-1.188-3.181-1.188-1.563 0-3.093.526-4.6 1.562 0 6.083.072 11.145.215 15.195h-5.724c.16-4.432.239-9.75.239-15.944 0-5.708-.223-10.451-.669-14.23l6.09-.343c-.215 4.608-.318 8.61-.318 12.014h.279c1.897-1.73 4.057-2.599 6.497-2.599 2.312 0 4.121.518 5.437 1.563 1.315 1.044 1.969 2.886 1.969 5.516 0 .271-.016.83-.056 1.666-.032.837-.056 1.388-.056 1.667 0 2.391.032 5.955.104 10.69"
          fill="#003B72"></path>
    <path d="M152.92 30.294c.55-.311.893-.28 1.698-.231 1.627.095 1.898 0 2.44.645.223.264.175.766.088 1.029-.144.438-.112.558-.455 1.467-.343.916-.661 1.538-.98 2.176-.279.566-.359.717-.941 1.515-.582.797-.773.9-1.323 1.363-.551.454-.782.574-1.555.917-.773.343-1.451.502-2.152.63-.71.127-1.404.23-2.209.183-.159-.008-.311-.271-.414-.447-.271-.454-.399-.717-.487-1.506-.087-.718-.279-1.363.104-1.858.279-.367.917-.319 1.323-.414.622-.152 1.427-.495 1.826-.694 1.515-.965 1.722-1.435 2.408-2.934.135-.574.039-.032.151-.765.12-.733.152-.877.486-1.068"
          fill="#FEA92F"></path>
</svg>
